<svg width="1672" height="508" viewBox="0 0 1672 508" fill="none" xmlns="http://www.w3.org/2000/svg">
<g clip-path="url(#clip0_11_8)">
<path d="M0 123.3H44.15V310.01L259.84 122.38H324.22L145.79 278.28L319.17 507.76H264.9L113.14 306.33L44.16 366.12V507.76H0V123.3Z" fill="#1C252D"/>
<path d="M496.89 123.3H541.96L698.78 507.76H651.41L519.42 176.18L386.97 507.76H340.06L496.89 123.3Z" fill="#1C252D"/>
<path d="M1653.89 123.3V507.76H1574.79V123.3H1653.89Z" fill="#1C252D"/>
<path d="M732.32 123.3H800.04L919.96 456.03L1039.88 123.3H1108.05V507.76H1063.9V188.14L944.33 507.76H895.58L776.47 188.6V507.76H732.32V123.3Z" fill="#1C252D"/>
<path d="M1342.11 0C1310.53 0 1284.93 25.6 1284.93 57.18H1399.29C1399.29 25.6 1373.69 0 1342.11 0Z" fill="#1C252D"/>
<path d="M1557.16 0C1557.16 31.58 1582.76 57.18 1614.34 57.18C1645.92 57.18 1671.52 31.58 1671.52 0H1557.16Z" fill="#1C252D"/>
<path d="M1379.77 123.3H1304.46L1142.98 507.76H1226.68L1342.11 226.31L1457.09 507.76H1541.24L1379.77 123.3Z" fill="#1C252D"/>
</g>
<defs>
<clipPath id="clip0_11_8">
<rect width="1671.52" height="507.76" fill="white"/>
</clipPath>
</defs>
</svg>
