<svg width="104" height="24" viewBox="0 0 104 24" fill="none" xmlns="http://www.w3.org/2000/svg">
<g clip-path="url(#clip0_8563_1913)">
<path d="M40.404 23.4799C40.6353 22.9498 40.6352 22.9383 40.8794 22.3874C42.3979 22.9843 44.7569 23.7269 46.2644 19.7888C43.6503 13.3997 41.0134 7.05471 41.0134 7.05471H42.4297L47.0067 18.5508L52.1807 7.05471H53.5993C53.5993 7.05471 47.6942 19.5421 47.0741 20.8132C46.4059 22.0112 45.4739 24.0005 42.9273 24.0003C42.0629 23.9782 41.2088 23.802 40.404 23.4799V23.4799ZM84.7889 3.216C84.8455 1.99326 85.3002 1.23169 86.3412 1.23169H102.907C103.427 1.25273 103.816 1.75781 103.583 2.46389C103.284 2.95767 83.9804 22.4618 83.9804 22.4618C83.9804 22.4618 84.7889 3.28309 84.7889 3.216ZM75.5612 14.0234C75.2282 13.5067 75.3955 12.5271 76.0931 12.46C77.2468 12.4716 80.143 12.4371 80.143 12.4371L83.8474 22.4618C83.8474 22.4618 75.8046 14.4059 75.5605 14.0234H75.5612ZM78.6565 7.66688C78.5227 6.99132 78.8776 6.40782 79.5324 6.36178C79.6874 6.36178 84.4578 6.3502 84.4578 6.36178L83.913 22.4502C83.913 22.4502 78.7217 7.83524 78.656 7.66688H78.6565ZM35.5636 20.452L36.3716 6.49123H34.7534L34.8213 5.3316C34.8213 5.3316 35.785 5.32002 36.4372 5.3316C36.6591 3.67821 36.0617 -0.462484 40.9478 0.134681C40.9139 0.708697 40.8802 1.29219 40.8802 1.29219C40.7579 1.29219 40.6137 1.27878 40.4517 1.26589C39.3879 1.17802 37.6354 1.0899 37.7904 5.33214H40.4817L40.4154 6.49174H37.7225L36.9141 20.4525L35.5636 20.452ZM1.43868 16.1658C1.74875 10.125 1.98119 6.71508 1.98119 6.71508H0.29715L0.428865 4.65633H2.10155L2.37937 0H4.19664L3.93018 4.63632H7.63032L7.49709 6.69537H3.73084L3.18833 16.28C3.18833 16.28 3.15382 19.5981 6.82262 17.719C6.73425 18.867 6.68939 19.8467 6.68939 19.8467C5.95216 20.1597 5.16442 20.3313 4.36595 20.3528C2.88282 20.352 1.26688 19.5854 1.43793 16.1666L1.43868 16.1658ZM58.8518 13.4773C58.974 10.0463 61.588 6.86241 65.0444 6.83952C71.4929 6.92949 70.5081 14.0284 70.5081 14.0284H60.1371C60.2487 17.8429 62.6974 18.9215 64.4471 19.0914C66.1876 19.2598 67.749 18.2914 69.1551 17.0326C69.4319 17.2771 69.6809 17.5524 69.8974 17.8534C69.2671 18.5727 68.5009 19.1556 67.6447 19.5672C66.7884 19.9787 65.8596 20.2107 64.9135 20.2492C64.8372 20.2521 64.7616 20.2534 64.6853 20.2534C61.7026 20.2539 58.6009 18.0957 58.8502 13.478L58.8518 13.4773ZM60.203 12.8688H69.2858C69.3419 10.609 68.1109 7.9757 65.1188 7.94151C60.6901 8.18905 60.2017 12.8696 60.2017 12.8696L60.203 12.8688ZM9.11704 19.1698C7.59852 18.1901 7.37853 15.5363 8.50767 14.04C9.63758 12.5552 12.1971 11.1144 17.326 12.4652C17.7813 11.0128 16.9838 6.5028 9.92702 9.44943C9.66011 8.60551 9.44961 7.87471 9.44961 7.87471C12.2198 6.53517 18.9893 5.3432 19.2203 11.2946C18.9332 17.0771 18.7449 19.9914 18.7449 19.9914H16.9276L17.0609 18.0778C17.0609 18.0778 15.1616 20.2129 12.4024 20.2126C11.2307 20.1973 10.0888 19.8352 9.11578 19.1706L9.11704 19.1698ZM10.0474 17.4477C12.4966 20.3276 17.8695 17.9779 17.2493 13.8924C16.1695 13.5228 15.0396 13.3275 13.9004 13.3136C10.7877 13.3149 8.86738 15.0299 10.0456 17.4485L10.0474 17.4477ZM30.1774 19.9793L26.6117 14.635L22.302 19.9793H20.0754L25.5275 13.3415L21.0832 6.90635H23.3103L26.7437 11.9025L30.788 6.90635H32.948L27.7626 13.2745L32.4065 19.9793H30.1774ZM54.8188 19.9124L55.9704 0.955486H57.2449L56.0928 19.9124H54.8188Z" fill="white"/>
</g>
<defs>
<clipPath id="clip0_8563_1913">
<rect width="104" height="24" fill="white"/>
</clipPath>
</defs>
</svg>
