<?xml version="1.0" encoding="UTF-8"?>
<svg id="Layer_2" data-name="Layer 2" xmlns="http://www.w3.org/2000/svg" viewBox="0 0 1001.91 500">
  <defs>
    <style>
      .cls-1 {
        fill: #ffe700;
      }

      .cls-2 {
        fill: #1c252d;
      }
    </style>
  </defs>
  <g>
    <path class="cls-1" d="M70.08,28.46c-17.62,0-31.91,14.29-31.91,31.91h63.82c0-17.62-14.29-31.91-31.91-31.91Z"/>
    <path class="cls-2" d="M101.99,60.37c0,17.62,14.29,31.91,31.91,31.91s31.91-14.29,31.91-31.91h-63.82Z"/>
    <path class="cls-1" d="M197.72,28.46c-17.62,0-31.91,14.29-31.91,31.91h63.82c0-17.62-14.29-31.91-31.91-31.91Z"/>
    <path class="cls-2" d="M229.63,60.37c0,17.62,14.29,31.91,31.91,31.91s31.91-14.29,31.91-31.91h-63.82Z"/>
    <path class="cls-1" d="M325.36,28.46c-17.62,0-31.91,14.29-31.91,31.91h63.82c0-17.62-14.29-31.91-31.91-31.91Z"/>
    <path class="cls-2" d="M357.27,60.37c0,17.62,14.29,31.91,31.91,31.91s31.91-14.29,31.91-31.91h-63.82Z"/>
    <path class="cls-1" d="M453,28.46c-17.62,0-31.91,14.29-31.91,31.91h63.82c0-17.62-14.29-31.91-31.91-31.91Z"/>
    <path class="cls-2" d="M484.91,60.37c0,17.62,14.29,31.91,31.91,31.91s31.91-14.29,31.91-31.91h-63.82Z"/>
    <path class="cls-1" d="M580.64,28.46c-17.62,0-31.91,14.29-31.91,31.91h63.82c0-17.62-14.29-31.91-31.91-31.91Z"/>
    <path class="cls-2" d="M612.55,60.37c0,17.62,14.29,31.91,31.91,31.91s31.91-14.29,31.91-31.91h-63.82Z"/>
    <path class="cls-1" d="M708.28,28.46c-17.62,0-31.91,14.29-31.91,31.91h63.82c0-17.62-14.29-31.91-31.91-31.91Z"/>
    <path class="cls-2" d="M740.19,60.37c0,17.62,14.29,31.91,31.91,31.91s31.91-14.29,31.91-31.91h-63.82Z"/>
    <path class="cls-1" d="M835.93,28.46c-17.62,0-31.91,14.29-31.91,31.91h63.82c0-17.62-14.29-31.91-31.91-31.91Z"/>
    <path class="cls-1" d="M963.57,28.46c-17.62,0-31.91,14.29-31.91,31.91h63.82c0-17.62-14.29-31.91-31.91-31.91Z"/>
    <path class="cls-2" d="M867.84,60.37c0,17.62,14.29,31.91,31.91,31.91s31.91-14.29,31.91-31.91h-63.82Z"/>
  </g>
  <g>
    <path class="cls-1" d="M70.08,407.72c-17.62,0-31.91,14.29-31.91,31.91h63.82c0-17.62-14.29-31.91-31.91-31.91Z"/>
    <path class="cls-2" d="M101.99,439.63c0,17.62,14.29,31.91,31.91,31.91s31.91-14.29,31.91-31.91h-63.82Z"/>
    <path class="cls-1" d="M197.72,407.72c-17.62,0-31.91,14.29-31.91,31.91h63.82c0-17.62-14.29-31.91-31.91-31.91Z"/>
    <path class="cls-2" d="M229.63,439.63c0,17.62,14.29,31.91,31.91,31.91s31.91-14.29,31.91-31.91h-63.82Z"/>
    <path class="cls-1" d="M325.36,407.72c-17.62,0-31.91,14.29-31.91,31.91h63.82c0-17.62-14.29-31.91-31.91-31.91Z"/>
    <path class="cls-2" d="M357.27,439.63c0,17.62,14.29,31.91,31.91,31.91s31.91-14.29,31.91-31.91h-63.82Z"/>
    <path class="cls-1" d="M453,407.72c-17.62,0-31.91,14.29-31.91,31.91h63.82c0-17.62-14.29-31.91-31.91-31.91Z"/>
    <path class="cls-2" d="M484.91,439.63c0,17.62,14.29,31.91,31.91,31.91s31.91-14.29,31.91-31.91h-63.82Z"/>
    <path class="cls-1" d="M580.64,407.72c-17.62,0-31.91,14.29-31.91,31.91h63.82c0-17.62-14.29-31.91-31.91-31.91Z"/>
    <path class="cls-2" d="M612.55,439.63c0,17.62,14.29,31.91,31.91,31.91s31.91-14.29,31.91-31.91h-63.82Z"/>
    <path class="cls-1" d="M708.28,407.72c-17.62,0-31.91,14.29-31.91,31.91h63.82c0-17.62-14.29-31.91-31.91-31.91Z"/>
    <path class="cls-2" d="M740.19,439.63c0,17.62,14.29,31.91,31.91,31.91s31.91-14.29,31.91-31.91h-63.82Z"/>
    <path class="cls-1" d="M835.93,407.72c-17.62,0-31.91,14.29-31.91,31.91h63.82c0-17.62-14.29-31.91-31.91-31.91Z"/>
    <path class="cls-1" d="M963.57,407.72c-17.62,0-31.91,14.29-31.91,31.91h63.82c0-17.62-14.29-31.91-31.91-31.91Z"/>
    <path class="cls-2" d="M867.84,439.63c0,17.62,14.29,31.91,31.91,31.91s31.91-14.29,31.91-31.91h-63.82Z"/>
  </g>
  <g>
    <path class="cls-1" d="M70.08,331.87c-17.62,0-31.91,14.29-31.91,31.91h63.82c0-17.62-14.29-31.91-31.91-31.91Z"/>
    <path class="cls-2" d="M101.99,363.78c0,17.62,14.29,31.91,31.91,31.91s31.91-14.29,31.91-31.91h-63.82Z"/>
    <path class="cls-1" d="M197.72,331.87c-17.62,0-31.91,14.29-31.91,31.91h63.82c0-17.62-14.29-31.91-31.91-31.91Z"/>
    <path class="cls-2" d="M229.63,363.78c0,17.62,14.29,31.91,31.91,31.91s31.91-14.29,31.91-31.91h-63.82Z"/>
    <path class="cls-1" d="M325.36,331.87c-17.62,0-31.91,14.29-31.91,31.91h63.82c0-17.62-14.29-31.91-31.91-31.91Z"/>
    <path class="cls-2" d="M357.27,363.78c0,17.62,14.29,31.91,31.91,31.91s31.91-14.29,31.91-31.91h-63.82Z"/>
    <path class="cls-1" d="M453,331.87c-17.62,0-31.91,14.29-31.91,31.91h63.82c0-17.62-14.29-31.91-31.91-31.91Z"/>
    <path class="cls-2" d="M484.91,363.78c0,17.62,14.29,31.91,31.91,31.91s31.91-14.29,31.91-31.91h-63.82Z"/>
    <path class="cls-1" d="M580.64,331.87c-17.62,0-31.91,14.29-31.91,31.91h63.82c0-17.62-14.29-31.91-31.91-31.91Z"/>
    <path class="cls-2" d="M612.55,363.78c0,17.62,14.29,31.91,31.91,31.91s31.91-14.29,31.91-31.91h-63.82Z"/>
    <path class="cls-1" d="M708.28,331.87c-17.62,0-31.91,14.29-31.91,31.91h63.82c0-17.62-14.29-31.91-31.91-31.91Z"/>
    <path class="cls-2" d="M740.19,363.78c0,17.62,14.29,31.91,31.91,31.91s31.91-14.29,31.91-31.91h-63.82Z"/>
    <path class="cls-1" d="M835.93,331.87c-17.62,0-31.91,14.29-31.91,31.91h63.82c0-17.62-14.29-31.91-31.91-31.91Z"/>
    <path class="cls-1" d="M963.57,331.87c-17.62,0-31.91,14.29-31.91,31.91h63.82c0-17.62-14.29-31.91-31.91-31.91Z"/>
    <path class="cls-2" d="M867.84,363.78c0,17.62,14.29,31.91,31.91,31.91s31.91-14.29,31.91-31.91h-63.82Z"/>
  </g>
  <g>
    <path class="cls-1" d="M38.34,104.31c-17.62,0-31.91,14.29-31.91,31.91h63.82c0-17.62-14.29-31.91-31.91-31.91Z"/>
    <path class="cls-2" d="M70.25,136.22c0,17.62,14.29,31.91,31.91,31.91s31.91-14.29,31.91-31.91h-63.82Z"/>
    <path class="cls-1" d="M165.98,104.31c-17.62,0-31.91,14.29-31.91,31.91h63.82c0-17.62-14.29-31.91-31.91-31.91Z"/>
    <path class="cls-2" d="M197.9,136.22c0,17.62,14.29,31.91,31.91,31.91s31.91-14.29,31.91-31.91h-63.82Z"/>
    <path class="cls-1" d="M293.63,104.31c-17.62,0-31.91,14.29-31.91,31.91h63.82c0-17.62-14.29-31.91-31.91-31.91Z"/>
    <path class="cls-2" d="M325.54,136.22c0,17.62,14.29,31.91,31.91,31.91s31.91-14.29,31.91-31.91h-63.82Z"/>
    <path class="cls-1" d="M421.27,104.31c-17.62,0-31.91,14.29-31.91,31.91h63.82c0-17.62-14.29-31.91-31.91-31.91Z"/>
    <path class="cls-2" d="M453.18,136.22c0,17.62,14.29,31.91,31.91,31.91s31.91-14.29,31.91-31.91h-63.82Z"/>
    <path class="cls-1" d="M548.91,104.31c-17.62,0-31.91,14.29-31.91,31.91h63.82c0-17.62-14.29-31.91-31.91-31.91Z"/>
    <path class="cls-2" d="M580.82,136.22c0,17.62,14.29,31.91,31.91,31.91s31.91-14.29,31.91-31.91h-63.82Z"/>
    <path class="cls-1" d="M676.55,104.31c-17.62,0-31.91,14.29-31.91,31.91h63.82c0-17.62-14.29-31.91-31.91-31.91Z"/>
    <path class="cls-2" d="M708.46,136.22c0,17.62,14.29,31.91,31.91,31.91s31.91-14.29,31.91-31.91h-63.82Z"/>
    <path class="cls-1" d="M804.19,104.31c-17.62,0-31.91,14.29-31.91,31.91h63.82c0-17.62-14.29-31.91-31.91-31.91Z"/>
    <path class="cls-1" d="M931.84,104.31c-17.62,0-31.91,14.29-31.91,31.91h63.82c0-17.62-14.29-31.91-31.91-31.91Z"/>
    <path class="cls-2" d="M836.1,136.22c0,17.62,14.29,31.91,31.91,31.91s31.91-14.29,31.91-31.91h-63.82Z"/>
  </g>
  <g>
    <path class="cls-1" d="M38.34,256.01c-17.62,0-31.91,14.29-31.91,31.91h63.82c0-17.62-14.29-31.91-31.91-31.91Z"/>
    <path class="cls-2" d="M70.25,287.93c0,17.62,14.29,31.91,31.91,31.91s31.91-14.29,31.91-31.91h-63.82Z"/>
    <path class="cls-1" d="M165.98,256.01c-17.62,0-31.91,14.29-31.91,31.91h63.82c0-17.62-14.29-31.91-31.91-31.91Z"/>
    <path class="cls-2" d="M197.9,287.93c0,17.62,14.29,31.91,31.91,31.91s31.91-14.29,31.91-31.91h-63.82Z"/>
    <path class="cls-1" d="M293.63,256.01c-17.62,0-31.91,14.29-31.91,31.91h63.82c0-17.62-14.29-31.91-31.91-31.91Z"/>
    <path class="cls-2" d="M325.54,287.93c0,17.62,14.29,31.91,31.91,31.91s31.91-14.29,31.91-31.91h-63.82Z"/>
    <path class="cls-1" d="M421.27,256.01c-17.62,0-31.91,14.29-31.91,31.91h63.82c0-17.62-14.29-31.91-31.91-31.91Z"/>
    <path class="cls-2" d="M453.18,287.93c0,17.62,14.29,31.91,31.91,31.91s31.91-14.29,31.91-31.91h-63.82Z"/>
    <path class="cls-1" d="M548.91,256.01c-17.62,0-31.91,14.29-31.91,31.91h63.82c0-17.62-14.29-31.91-31.91-31.91Z"/>
    <path class="cls-2" d="M580.82,287.93c0,17.62,14.29,31.91,31.91,31.91s31.91-14.29,31.91-31.91h-63.82Z"/>
    <path class="cls-1" d="M676.55,256.01c-17.62,0-31.91,14.29-31.91,31.91h63.82c0-17.62-14.29-31.91-31.91-31.91Z"/>
    <path class="cls-2" d="M708.46,287.93c0,17.62,14.29,31.91,31.91,31.91s31.91-14.29,31.91-31.91h-63.82Z"/>
    <path class="cls-1" d="M804.19,256.01c-17.62,0-31.91,14.29-31.91,31.91h63.82c0-17.62-14.29-31.91-31.91-31.91Z"/>
    <path class="cls-1" d="M931.84,256.01c-17.62,0-31.91,14.29-31.91,31.91h63.82c0-17.62-14.29-31.91-31.91-31.91Z"/>
    <path class="cls-2" d="M836.1,287.93c0,17.62,14.29,31.91,31.91,31.91s31.91-14.29,31.91-31.91h-63.82Z"/>
  </g>
  <g>
    <path class="cls-1" d="M70.08,180.16c-17.62,0-31.91,14.29-31.91,31.91h63.82c0-17.62-14.29-31.91-31.91-31.91Z"/>
    <path class="cls-2" d="M101.99,212.07c0,17.62,14.29,31.91,31.91,31.91s31.91-14.29,31.91-31.91h-63.82Z"/>
    <path class="cls-1" d="M197.72,180.16c-17.62,0-31.91,14.29-31.91,31.91h63.82c0-17.62-14.29-31.91-31.91-31.91Z"/>
    <path class="cls-2" d="M229.63,212.07c0,17.62,14.29,31.91,31.91,31.91s31.91-14.29,31.91-31.91h-63.82Z"/>
    <path class="cls-1" d="M325.36,180.16c-17.62,0-31.91,14.29-31.91,31.91h63.82c0-17.62-14.29-31.91-31.91-31.91Z"/>
    <path class="cls-2" d="M357.27,212.07c0,17.62,14.29,31.91,31.91,31.91s31.91-14.29,31.91-31.91h-63.82Z"/>
    <path class="cls-1" d="M453,180.16c-17.62,0-31.91,14.29-31.91,31.91h63.82c0-17.62-14.29-31.91-31.91-31.91Z"/>
    <path class="cls-2" d="M484.91,212.07c0,17.62,14.29,31.91,31.91,31.91s31.91-14.29,31.91-31.91h-63.82Z"/>
    <path class="cls-1" d="M580.64,180.16c-17.62,0-31.91,14.29-31.91,31.91h63.82c0-17.62-14.29-31.91-31.91-31.91Z"/>
    <path class="cls-2" d="M612.55,212.07c0,17.62,14.29,31.91,31.91,31.91s31.91-14.29,31.91-31.91h-63.82Z"/>
    <path class="cls-1" d="M708.28,180.16c-17.62,0-31.91,14.29-31.91,31.91h63.82c0-17.62-14.29-31.91-31.91-31.91Z"/>
    <path class="cls-2" d="M740.19,212.07c0,17.62,14.29,31.91,31.91,31.91s31.91-14.29,31.91-31.91h-63.82Z"/>
    <path class="cls-1" d="M835.93,180.16c-17.62,0-31.91,14.29-31.91,31.91h63.82c0-17.62-14.29-31.91-31.91-31.91Z"/>
    <path class="cls-1" d="M963.57,180.16c-17.62,0-31.91,14.29-31.91,31.91h63.82c0-17.62-14.29-31.91-31.91-31.91Z"/>
    <path class="cls-2" d="M867.84,212.07c0,17.62,14.29,31.91,31.91,31.91s31.91-14.29,31.91-31.91h-63.82Z"/>
  </g>
</svg>